<?xml version="1.0" encoding="utf-8"?>
<!-- Generator: Adobe Illustrator 19.0.0, SVG Export Plug-In . SVG Version: 6.00 Build 0)  -->
<svg version="1.1" id="Layer_1" xmlns="http://www.w3.org/2000/svg" xmlns:xlink="http://www.w3.org/1999/xlink" x="0px" y="0px"
	 viewBox="0 0 452.2 452.5" style="enable-background:new 0 0 452.2 452.5;" xml:space="preserve">
<style type="text/css">
	.st0{fill:#3AD3A7;}
</style>
<path class="st0" d="M252.9,292.2c-7.5,13-15,24.8-21.4,37.2c-3.7,7.2-9,10.9-16.5,13.6c-43,15.1-85.8,30.7-128.7,46.2
	c-10.7,3.8-20.7-0.4-24.2-10.1c-3.5-9.8,1.5-19.3,12.3-23.2c31.9-11.5,63.8-23,95.8-34.5c2-0.7,4-1.5,7.1-2.6
	c-12-4.4-23.1-8.5-34.2-12.6c-43.4-16-86.8-31.9-130.2-47.9c-9-3.3-13.5-10.1-12.8-19.1c0.6-7.6,6.6-13.9,14.8-15.5
	c4.2-0.8,7.9,0.6,11.7,1.9c31.9,11.7,63.7,23.5,95.5,35.2c1.5,0.6,3.1,1,5.8,1.9c-3.9-6.9-7.2-12.7-10.6-18.6
	c-25.5-44.5-51-89-76.4-133.5c-4.3-7.6-3.7-15.6,1.5-21.3c5.2-5.8,12.9-7.6,20-4.7c4.7,1.9,7.6,5.7,10,10
	c16.7,29.2,33.4,58.4,50.1,87.6c1,1.7,2,3.4,3.6,6.1c1.8-9.5,3.3-17.8,4.8-26.1c8.2-45.5,16.4-91,24.5-136.5
	c0.8-4.3,1.4-8.6,2.5-12.7c2.5-9.2,11.7-14.5,21-12.4c8.8,2,14.8,10.4,13.2,19.5c-5.1,29.3-10.4,58.6-15.7,87.9
	c-1.2,6.9-2.4,13.7-3.8,21.3c4.7-2.3,7.7-5.6,11-8.4C224.5,87,265.2,53.1,305.9,19.2c9.6-8,20.4-8,27.1-0.2c6.6,7.8,5.5,19-2.6,25.7
	c-26.1,21.8-52.2,43.5-78.3,65.3c-1.8,1.5-3.5,3-6.4,5.6c10.5,0,19.7,0,28.9,0c42.8,0.2,85.6,0.3,128.5,0.5c6.3,0,12.7,0.1,19,0.1
	c10,0.1,17.6,7.4,17.9,17.1c0.3,9.7-7.4,17.9-17.5,18c-26.3,0.1-52.7-0.1-79-0.1c-10.2,0-20.5,0-32.2,0c8.7,7.4,16.4,14,24.1,20.5
	c36.8,31.1,73.5,62.1,110.3,93.3c7.6,6.5,8.8,17.1,2.9,24.6c-6.4,8-17.2,9.3-25.3,2.5c-23-19.2-45.9-38.6-68.8-58
	c-4.8-4-9.6-8.1-15.2-12.7c-0.5,6.1,1.1,11,2,15.9c8.8,51.3,17.7,102.6,26.6,153.9c1.9,10.9-1.2,18.6-9.4,22.4
	c-10.8,5-22.7-1.3-25-13.5c-2.3-12.1-4.2-24.3-6.3-36.4c-4-23.4-8.1-46.9-12.1-70.3c0-0.2-0.4-0.4-0.7-0.7c-1.8,0.6-2.1,2.4-2.9,3.8
	c-28.3,48.6-56.7,97.2-85,145.9c-5.1,8.8-13.9,12.3-22.4,9c-10.6-4.1-14.5-15.9-8.6-26.1c17.5-30.2,35.2-60.4,52.7-90.7
	c14.7-25.2,29.4-50.3,44-75.5c15.3-26.4,12.5-60.8-7.9-83.4c-14.9-16.6-33.5-24.8-56.5-25.1c-28.9-0.4-59.6,22.6-68,51.1
	c-14.6,50,24.7,98.2,76.7,93.5C241.7,294.7,246.7,293.3,252.9,292.2z"/>
</svg>
